HIERARCHY
ROOT Hips
{
	OFFSET 0.000000 0.000000 0.000000 
	CHANNELS 6 Xposition Yposition Zposition Zrotation Yrotation Xrotation
	JOINT LeftUpLeg
	{
		OFFSET 1.363060 -1.794630 0.839290 
		CHANNELS 3 Zrotation Yrotation Xrotation
		JOINT LeftLeg
		{
			OFFSET 2.448110 -6.726130 0.000000 
			CHANNELS 3 Zrotation Yrotation Xrotation
			JOINT LeftFoot
			{
				OFFSET 2.562200 -7.039590 0.000000 
				CHANNELS 3 Zrotation Yrotation Xrotation
				JOINT LeftToeBase
				{
					OFFSET 0.157640 -0.433110 2.322550 
					CHANNELS 3 Zrotation Yrotation Xrotation
					End Site
					{
						OFFSET 0.000000 0.000000 0.000000 
					}
				}
			}
		}
	}
	JOINT RightUpLeg
	{
		OFFSET -1.305520 -1.794630 0.839290 
		CHANNELS 3 Zrotation Yrotation Xrotation
		JOINT RightLeg
		{
			OFFSET -2.542530 -6.985550 0.000000 
			CHANNELS 3 Zrotation Yrotation Xrotation
			JOINT RightFoot
			{
				OFFSET -2.568260 -7.056230 0.000000 
				CHANNELS 3 Zrotation Yrotation Xrotation
				JOINT RightToeBase
				{
					OFFSET -0.164730 -0.452590 2.363150 
					CHANNELS 3 Zrotation Yrotation Xrotation
					End Site
					{
						OFFSET 0.000000 0.000000 0.000000 
					}
				}
			}
		}
	}
	JOINT Spine
	{
		OFFSET 0.028270 2.035590 -0.193380 
		CHANNELS 3 Zrotation Yrotation Xrotation
		JOINT Spine1
		{
			OFFSET 0.056720 2.048850 -0.042750 
			CHANNELS 3 Zrotation Yrotation Xrotation
			JOINT Neck1
			{
				OFFSET -0.054170 1.746240 0.172020 
				CHANNELS 3 Zrotation Yrotation Xrotation
				JOINT Head
				{
					OFFSET 0.104070 1.761360 -0.123970 
					CHANNELS 3 Zrotation Yrotation Xrotation
					End Site
					{
						OFFSET 0.000000 0.000000 0.000000 
					}
				}
			}
			JOINT LeftArm
			{
				OFFSET 3.362410 1.200890 -0.311210 
				CHANNELS 3 Zrotation Yrotation Xrotation
				JOINT LeftForeArm
				{
					OFFSET 4.983000 -0.000000 -0.000000 
					CHANNELS 3 Zrotation Yrotation Xrotation
					JOINT LeftHand
					{
						OFFSET 3.483560 -0.000000 -0.000000 
						CHANNELS 3 Zrotation Yrotation Xrotation
						JOINT LeftHandIndex1
						{
							OFFSET 0.715260 -0.000000 -0.000000 
							CHANNELS 3 Zrotation Yrotation Xrotation
							End Site
							{
								OFFSET 0.000000 0.000000 0.000000 
							}
						}
					}
				}
			}
			JOINT RightArm
			{
				OFFSET -3.136600 1.374050 -0.404650 
				CHANNELS 3 Zrotation Yrotation Xrotation
				JOINT RightForeArm
				{
					OFFSET -5.241900 -0.000000 -0.000000 
					CHANNELS 3 Zrotation Yrotation Xrotation
					JOINT RightHand
					{
						OFFSET -3.444170 -0.000000 -0.000000 
						CHANNELS 3 Zrotation Yrotation Xrotation
						JOINT RightHandIndex1
						{
							OFFSET -0.622530 -0.000000 -0.000000 
							CHANNELS 3 Zrotation Yrotation Xrotation
							End Site
							{
								OFFSET 0.000000 0.000000 0.000000 
							}
						}
					}
				}
			}
		}
	}
}
MOTION
Frames: 16
Frame Time: 0.041667
3.696000 27.297100 -1.233500 -106.568000 80.088600 -99.265400 -12.432000 -6.637700 -17.590400 3.075400 10.816100 31.662000 1.663000 -7.978800 -23.096700 3.355500 11.249400 33.125500 21.247700 2.414700 -18.245500 -1.159300 -6.835600 19.229200 -0.002300 2.215800 -1.717200 -0.478900 4.437800 -12.311600 -1.639600 3.212500 -1.006400 3.243000 1.782800 -3.464700 2.743100 6.109800 -1.234900 -1.741100 2.969100 -2.093300 -69.761000 -10.797600 55.610700 42.518200 -49.493100 -20.333700 0.000000 0.000000 10.955500 -7.125000 0.000000 0.000000 77.915900 8.808200 53.015700 -38.000400 46.839600 -16.965900 0.000000 0.000000 10.523400 7.125000 0.000000 0.000000 
3.702400 27.289900 -1.255300 -104.122000 80.169200 -97.231500 -12.578500 -6.528100 -17.027900 3.067300 10.803200 31.619200 1.698800 -7.717800 -23.352900 3.381100 11.287900 33.256900 21.233300 2.303400 -18.010300 -1.189500 -6.921000 19.481600 -0.000200 2.571500 -1.816500 -0.430100 4.208700 -11.664600 -1.583700 3.271800 -1.081200 3.131300 1.816100 -3.679100 2.790800 6.147300 -0.272500 -1.655000 3.060200 -1.592800 -70.441800 -9.212100 55.001600 40.372200 -48.288800 -18.716600 0.000000 0.000000 11.229000 -7.125000 0.000000 0.000000 78.134000 7.342500 53.620300 -36.791300 46.049700 -16.089600 0.000000 0.000000 10.376000 7.125000 0.000000 0.000000 
3.712200 27.290700 -1.276200 -104.169000 80.239100 -97.176900 -12.717600 -6.571500 -17.077100 3.061800 10.794500 31.589800 1.701200 -7.772200 -23.368700 3.415700 11.339400 33.433300 21.107000 2.276800 -18.229700 -1.216700 -6.997000 19.706400 -0.002100 2.471500 -1.868900 -0.285600 3.436700 -9.497100 -1.593000 2.998700 -1.426400 2.964800 1.696300 -4.029900 2.245800 6.482000 -1.270700 -1.941800 3.160600 -2.090200 -71.040200 -7.382100 54.145700 38.425000 -47.108600 -17.276300 0.000000 0.000000 11.434900 -7.125000 0.000000 0.000000 78.456800 5.761300 54.281200 -35.541800 45.195200 -15.196500 0.000000 0.000000 10.647200 7.125000 0.000000 0.000000 
3.725100 27.282100 -1.293200 -103.556000 80.474100 -96.672900 -13.048600 -6.475100 -16.879700 3.055900 10.785000 31.558300 1.720000 -7.747600 -23.501500 3.396200 11.310300 33.333700 20.840900 2.220100 -18.226100 -1.240000 -7.061200 19.896700 -0.002700 2.336000 -1.825200 -0.168700 2.646000 -7.294600 -1.584500 2.927600 -1.591100 2.945800 1.672100 -4.237800 2.521400 6.369200 0.833500 -1.702700 3.251800 -1.106500 -71.736900 -5.927800 53.328700 36.480000 -45.840500 -15.865900 0.000000 0.000000 11.657600 -7.125000 0.000000 0.000000 78.610000 4.487100 54.439200 -34.272700 44.285700 -14.303100 0.000000 0.000000 11.240600 7.125000 0.000000 0.000000 
3.736500 27.276900 -1.304700 -101.578000 80.620600 -94.756600 -13.220300 -6.442600 -16.696400 3.049800 10.775200 31.525600 1.752200 -7.550200 -23.731000 3.397400 11.312200 33.340200 20.708400 2.394000 -18.205800 -1.260400 -7.116900 20.062100 -0.002200 2.358200 -1.806300 -0.170800 2.662400 -7.340200 -1.471000 3.047400 -1.679000 3.064500 1.734800 -4.228700 1.998800 6.510700 -0.333400 -1.954500 3.245600 -1.638100 -72.579500 -4.699400 52.567400 34.542000 -44.482300 -14.491500 0.000000 0.000000 11.944800 -7.125000 0.000000 0.000000 78.627100 3.255000 54.329500 -33.166800 43.457800 -13.536700 0.000000 0.000000 11.566900 7.125000 0.000000 0.000000 
3.743400 27.272900 -1.318100 -101.767000 80.609800 -95.072800 -13.270100 -6.451800 -16.512800 3.044900 10.767400 31.499300 1.755000 -7.714400 -23.746100 3.484900 11.441500 33.783800 20.664700 2.411000 -18.111700 -1.282200 -7.175800 20.237300 -0.005500 2.342200 -2.004500 -0.282600 3.418800 -9.446900 -1.370500 2.952400 -1.813700 3.045700 1.692000 -4.395800 2.120200 6.473800 1.089700 -1.809500 3.322800 -1.001100 -73.374300 -3.325400 51.673600 32.836300 -43.203900 -13.309900 0.000000 0.000000 12.295700 -7.125000 0.000000 0.000000 78.837600 1.885800 54.166200 -32.123900 42.645700 -12.824700 0.000000 0.000000 12.023300 7.125000 0.000000 0.000000 
3.751100 27.267800 -1.332000 -102.318000 80.701400 -95.668100 -13.436600 -6.341300 -16.454100 3.036600 10.754100 31.455100 1.748000 -8.009700 -23.692500 3.559100 11.549400 34.155900 20.501000 2.408000 -18.134900 -1.304100 -7.234400 20.411700 -0.009900 2.303700 -2.253100 -0.391300 4.016700 -11.123700 -1.311600 2.911700 -1.893800 3.068200 1.673800 -4.425800 1.546700 6.468300 0.242600 -2.176300 3.272900 -1.384100 -74.036500 -2.126400 50.964800 31.359100 -42.030200 -12.309600 0.000000 0.000000 12.565500 -7.125000 0.000000 0.000000 79.052600 0.623400 53.867800 -31.102200 41.819600 -12.137900 0.000000 0.000000 12.340600 7.125000 0.000000 0.000000 
3.763400 27.264600 -1.347300 -101.732000 80.895000 -95.151200 -13.718200 -6.200600 -16.304900 3.025400 10.736100 31.394900 1.761400 -7.998400 -23.785500 3.540500 11.522500 34.062900 20.288800 2.337900 -18.175800 -1.327600 -7.296600 20.597100 -0.011600 2.382700 -2.383400 -0.434900 4.231900 -11.730000 -1.276700 2.878900 -1.987800 3.100800 1.661700 -4.458200 1.514900 6.476500 0.509000 -2.131800 3.294600 -1.231200 -74.607200 -0.866000 50.119400 29.980300 -40.876500 -11.396700 0.000000 0.000000 12.794500 -7.125000 0.000000 0.000000 79.135300 -0.559900 53.946400 -30.070400 40.953700 -11.455700 0.000000 0.000000 12.191800 7.125000 0.000000 0.000000 
3.775400 27.263900 -1.362800 -101.271000 81.000800 -94.803500 -13.910100 -6.075000 -16.092000 3.012500 10.715300 31.325700 1.775300 -8.006800 -23.881200 3.515700 11.486500 33.938800 20.177600 2.253400 -18.153900 -1.352400 -7.361700 20.791400 -0.013700 2.429200 -2.518900 -0.502400 4.543900 -12.612200 -1.210600 2.818900 -2.113600 3.096200 1.636300 -4.574300 1.346400 6.507200 0.708300 -2.180300 3.325200 -1.127600 -75.303400 0.400600 49.065100 28.521100 -39.591500 -10.454100 0.000000 0.000000 13.203600 -7.125000 0.000000 0.000000 79.149100 -1.731000 53.976600 -28.972600 39.996300 -10.743100 0.000000 0.000000 12.322900 7.125000 0.000000 0.000000 
3.785000 27.258800 -1.375400 -101.262000 81.085200 -94.885900 -14.052900 -6.152600 -15.852600 2.999300 10.694000 31.254700 1.795600 -8.075200 -24.019600 3.582800 11.583500 34.274000 20.047700 2.354200 -18.088500 -1.375800 -7.422500 20.973300 -0.018800 2.303400 -2.725300 -0.567900 4.826400 -13.414000 -1.126600 2.893200 -2.146700 3.150700 1.671900 -4.528100 1.335600 6.305400 1.139100 -2.164600 3.252200 -0.996800 -76.007300 1.308800 48.313700 26.981900 -38.161900 -9.487900 0.000000 0.000000 13.557100 -7.125000 0.000000 0.000000 79.302200 -2.936800 53.184600 -28.063300 39.174500 -10.163700 0.000000 0.000000 13.035500 7.125000 0.000000 0.000000 
3.795300 27.251500 -1.387200 -100.714000 81.089900 -94.495400 -14.102200 -6.295600 -15.508900 2.988400 10.676300 31.195800 1.819200 -8.017500 -24.181900 3.647600 11.676000 34.595300 20.025600 2.405600 -17.944400 -1.396100 -7.474800 21.130000 -0.023100 2.259400 -2.921900 -0.591800 4.925100 -13.695200 -1.062200 2.968500 -2.131300 3.115100 1.700700 -4.432100 1.191900 6.346100 1.171600 -2.187900 3.276200 -0.908500 -76.460600 2.190900 47.659800 25.640200 -36.851200 -8.671000 0.000000 0.000000 13.705900 -7.125000 0.000000 0.000000 79.598800 -4.126300 52.420800 -27.243400 38.410400 -9.650000 0.000000 0.000000 13.643700 7.125000 0.000000 0.000000 
3.803600 27.248600 -1.400100 -99.884800 81.053400 -93.819400 -14.119500 -6.297400 -15.226700 2.977000 10.657700 31.133800 1.833200 -7.941900 -24.278400 3.662500 11.697200 34.669100 20.070700 2.356400 -17.854200 -1.419400 -7.534400 21.308500 -0.024900 2.232300 -2.997200 -0.551600 4.757600 -13.218400 -0.975800 3.081600 -2.139400 3.073300 1.750100 -4.400300 1.002000 6.386800 1.186000 -2.228700 3.299000 -0.835700 -76.936900 3.054600 46.955300 24.376900 -35.560300 -7.924700 0.000000 0.000000 14.045300 -7.125000 0.000000 0.000000 79.741300 -5.247700 52.004900 -26.325000 37.527800 -9.084900 0.000000 0.000000 13.651700 7.125000 0.000000 0.000000 
3.810600 27.245200 -1.415200 -98.531000 81.170500 -92.597900 -14.318300 -6.261800 -14.966500 2.959800 10.629700 31.041000 1.853700 -7.793700 -24.421100 3.732500 11.795700 35.012900 19.934600 2.401500 -17.849100 -1.451200 -7.614800 21.550000 -0.024500 2.102800 -2.943200 -0.408400 4.102600 -11.365500 -0.927100 3.329100 -2.125400 3.070800 1.868400 -4.325300 0.931300 6.049100 1.504100 -2.310600 3.156300 -0.685900 -77.548200 3.724700 46.203500 23.014800 -34.105000 -7.146600 0.000000 0.000000 14.676100 -7.125000 0.000000 0.000000 79.914000 -6.343600 51.088400 -25.461900 36.672400 -8.564300 0.000000 0.000000 13.852400 7.125000 0.000000 0.000000 
3.818200 27.240200 -1.430800 -97.030000 81.367400 -91.251000 -14.609500 -6.180000 -14.687400 2.937700 10.593600 30.921200 1.862700 -7.670600 -24.486200 3.790300 11.876000 35.294600 19.699000 2.463100 -17.822500 -1.489800 -7.710900 21.839300 -0.026600 2.065800 -3.032900 -0.282100 3.416100 -9.439400 -0.982500 3.351100 -2.399800 2.911000 1.896400 -4.798100 0.907600 6.162600 1.728100 -2.288100 3.225900 -0.592500 -77.980600 4.965700 45.111900 21.810300 -32.762000 -6.482900 0.000000 0.000000 15.251300 -7.125000 0.000000 0.000000 80.269500 -7.731200 50.239200 -24.669000 35.863700 -8.095200 0.000000 0.000000 14.598000 7.125000 0.000000 0.000000 
3.822800 27.237700 -1.443800 -96.921800 81.650500 -91.232000 -14.980000 -6.024900 -14.546400 2.915800 10.557500 30.801500 1.849500 -7.793500 -24.393100 3.813400 11.907800 35.406600 19.369400 2.400500 -17.865600 -1.529600 -7.808600 22.134300 -0.031200 2.083200 -3.249300 -0.286600 3.443000 -9.514500 -0.990100 3.526600 -2.295000 2.964700 1.976300 -4.539700 0.954800 5.787400 2.170100 -2.284300 3.069300 -0.438500 -78.357500 5.465500 44.584200 20.631200 -31.395300 -5.856600 0.000000 0.000000 15.589600 -7.125000 0.000000 0.000000 80.547100 -8.688300 48.908100 -23.989900 35.153600 -7.700700 0.000000 0.000000 14.939900 7.125000 0.000000 0.000000 
3.826900 27.235900 -1.454400 -97.496900 81.861200 -91.884300 -15.258000 -5.868800 -14.446100 2.897100 10.526600 30.699400 1.841100 -8.045000 -24.330700 3.844900 11.951100 35.559300 19.107300 2.433100 -17.860900 -1.566300 -7.897400 22.402700 -0.035800 1.909200 -3.413800 -0.359900 3.854000 -10.666400 -0.955900 3.578000 -2.327400 3.040100 2.006400 -4.561700 0.741600 5.782700 2.028000 -2.352400 3.058900 -0.408000 -78.664700 6.223000 44.065800 19.568200 -30.118600 -5.313000 0.000000 0.000000 15.847600 -7.125000 0.000000 0.000000 80.802100 -9.828400 47.695700 -23.357000 34.476900 -7.339400 0.000000 0.000000 15.090500 7.125000 0.000000 0.000000 
